<mxfile host="app.diagrams.net" modified="2023-04-12T02:18:35.337Z" agent="5.0 (Macintosh)" version="20.8.4" etag="dgT3AKr-Z4wQF6ft1S9U" type="github">
  <diagram id="NVtOqwDCr2i9Ciga5ujS" name="Page-1">
    <mxGraphModel dx="2044" dy="1806" grid="1" gridSize="10" guides="1" tooltips="1" connect="1" arrows="1" fold="1" page="1" pageScale="1" pageWidth="850" pageHeight="1100" math="0" shadow="0">
      <root>
        <mxCell id="0" />
        <mxCell id="1" parent="0" />
        <mxCell id="Gpl_aYkSZ7lwS6UjirmN-12" style="rounded=0;orthogonalLoop=1;jettySize=auto;html=1;exitX=1;exitY=0.5;exitDx=0;exitDy=0;exitPerimeter=0;entryX=0.3;entryY=0.3;entryDx=0;entryDy=0;entryPerimeter=0;fontSize=8;horizontal=0;strokeColor=#d79b00;edgeStyle=orthogonalEdgeStyle;endArrow=none;endFill=0;fillColor=#ffe6cc;" edge="1" parent="1" source="Gpl_aYkSZ7lwS6UjirmN-1" target="Gpl_aYkSZ7lwS6UjirmN-11">
          <mxGeometry relative="1" as="geometry" />
        </mxCell>
        <mxCell id="Gpl_aYkSZ7lwS6UjirmN-22" style="edgeStyle=orthogonalEdgeStyle;rounded=0;orthogonalLoop=1;jettySize=auto;html=1;entryX=0.202;entryY=0.7;entryDx=0;entryDy=0;entryPerimeter=0;strokeColor=default;fontSize=8;endArrow=none;endFill=0;" edge="1" parent="1" source="Gpl_aYkSZ7lwS6UjirmN-1" target="Gpl_aYkSZ7lwS6UjirmN-21">
          <mxGeometry relative="1" as="geometry" />
        </mxCell>
        <mxCell id="Gpl_aYkSZ7lwS6UjirmN-1" value="&lt;div style=&quot;&quot;&gt;&lt;font style=&quot;font-size: 10px;&quot;&gt;&lt;b&gt;crst-hn-001&lt;/b&gt;&lt;/font&gt;&lt;/div&gt;&lt;div&gt;&lt;font style=&quot;font-size: 10px;&quot;&gt;PBS Pro Server&lt;/font&gt;&lt;/div&gt;&lt;div&gt;&lt;font style=&quot;font-size: 10px;&quot;&gt;Altair LMX Server&lt;/font&gt;&lt;/div&gt;&lt;div style=&quot;&quot;&gt;&lt;font style=&quot;font-size: 10px;&quot;&gt;Altair Access Server&lt;font style=&quot;font-size: 10px;&quot;&gt;&lt;br&gt;&lt;/font&gt;&lt;/font&gt;&lt;/div&gt;" style="verticalLabelPosition=bottom;html=1;verticalAlign=top;align=center;strokeColor=none;fillColor=#00BEF2;shape=mxgraph.azure.server;fontSize=10;" vertex="1" parent="1">
          <mxGeometry x="40" y="190" width="110" height="40" as="geometry" />
        </mxCell>
        <mxCell id="Gpl_aYkSZ7lwS6UjirmN-13" style="edgeStyle=orthogonalEdgeStyle;rounded=0;orthogonalLoop=1;jettySize=auto;html=1;entryX=0.13;entryY=0.5;entryDx=0;entryDy=0;entryPerimeter=0;strokeColor=#d79b00;fontSize=8;endArrow=none;endFill=0;fillColor=#ffe6cc;" edge="1" parent="1" source="Gpl_aYkSZ7lwS6UjirmN-2" target="Gpl_aYkSZ7lwS6UjirmN-11">
          <mxGeometry relative="1" as="geometry" />
        </mxCell>
        <mxCell id="Gpl_aYkSZ7lwS6UjirmN-2" value="&lt;div style=&quot;font-size: 8px;&quot;&gt;&lt;font style=&quot;font-size: 8px;&quot;&gt;&lt;b style=&quot;font-size: 8px;&quot;&gt;crst-cn-001&lt;/b&gt;&lt;/font&gt;&lt;/div&gt;&lt;div style=&quot;font-size: 8px;&quot;&gt;&lt;font style=&quot;font-size: 8px;&quot;&gt;PBS MoM&lt;br style=&quot;font-size: 8px;&quot;&gt;&lt;/font&gt;&lt;/div&gt;" style="verticalLabelPosition=bottom;html=1;verticalAlign=top;align=center;strokeColor=none;fillColor=#00BEF2;shape=mxgraph.azure.server;fontSize=8;" vertex="1" parent="1">
          <mxGeometry x="240" y="130" width="110" height="30" as="geometry" />
        </mxCell>
        <mxCell id="Gpl_aYkSZ7lwS6UjirmN-14" style="edgeStyle=orthogonalEdgeStyle;rounded=0;orthogonalLoop=1;jettySize=auto;html=1;entryX=0.389;entryY=0.3;entryDx=0;entryDy=0;entryPerimeter=0;strokeColor=#d79b00;fontSize=8;endArrow=none;endFill=0;fillColor=#ffe6cc;" edge="1" parent="1" source="Gpl_aYkSZ7lwS6UjirmN-3" target="Gpl_aYkSZ7lwS6UjirmN-11">
          <mxGeometry relative="1" as="geometry" />
        </mxCell>
        <mxCell id="Gpl_aYkSZ7lwS6UjirmN-3" value="&lt;div style=&quot;font-size: 8px;&quot;&gt;&lt;font style=&quot;font-size: 8px;&quot;&gt;&lt;b style=&quot;font-size: 8px;&quot;&gt;crst-cn-002&lt;/b&gt;&lt;/font&gt;&lt;/div&gt;&lt;div style=&quot;font-size: 8px;&quot;&gt;&lt;font style=&quot;font-size: 8px;&quot;&gt;PBS MoM&lt;br style=&quot;font-size: 8px;&quot;&gt;&lt;/font&gt;&lt;/div&gt;" style="verticalLabelPosition=bottom;html=1;verticalAlign=top;align=center;strokeColor=none;fillColor=#00BEF2;shape=mxgraph.azure.server;fontSize=8;" vertex="1" parent="1">
          <mxGeometry x="240" y="200" width="110" height="30" as="geometry" />
        </mxCell>
        <mxCell id="Gpl_aYkSZ7lwS6UjirmN-15" style="edgeStyle=orthogonalEdgeStyle;rounded=0;orthogonalLoop=1;jettySize=auto;html=1;entryX=0.611;entryY=0.5;entryDx=0;entryDy=0;entryPerimeter=0;strokeColor=#d79b00;fontSize=8;endArrow=none;endFill=0;fillColor=#ffe6cc;" edge="1" parent="1" source="Gpl_aYkSZ7lwS6UjirmN-4" target="Gpl_aYkSZ7lwS6UjirmN-11">
          <mxGeometry relative="1" as="geometry" />
        </mxCell>
        <mxCell id="Gpl_aYkSZ7lwS6UjirmN-4" value="&lt;div style=&quot;font-size: 8px;&quot;&gt;&lt;font style=&quot;font-size: 8px;&quot;&gt;&lt;b style=&quot;font-size: 8px;&quot;&gt;crst-cn-003&lt;/b&gt;&lt;/font&gt;&lt;/div&gt;&lt;div style=&quot;font-size: 8px;&quot;&gt;&lt;font style=&quot;font-size: 8px;&quot;&gt;PBS MoM&lt;br style=&quot;font-size: 8px;&quot;&gt;&lt;/font&gt;&lt;/div&gt;" style="verticalLabelPosition=bottom;html=1;verticalAlign=top;align=center;strokeColor=none;fillColor=#00BEF2;shape=mxgraph.azure.server;fontSize=8;" vertex="1" parent="1">
          <mxGeometry x="240" y="260" width="110" height="30" as="geometry" />
        </mxCell>
        <mxCell id="Gpl_aYkSZ7lwS6UjirmN-16" style="edgeStyle=orthogonalEdgeStyle;rounded=0;orthogonalLoop=1;jettySize=auto;html=1;entryX=0.833;entryY=0.5;entryDx=0;entryDy=0;entryPerimeter=0;strokeColor=#d79b00;fontSize=8;endArrow=none;endFill=0;fillColor=#ffe6cc;" edge="1" parent="1" source="Gpl_aYkSZ7lwS6UjirmN-5" target="Gpl_aYkSZ7lwS6UjirmN-11">
          <mxGeometry relative="1" as="geometry" />
        </mxCell>
        <mxCell id="Gpl_aYkSZ7lwS6UjirmN-5" value="&lt;div style=&quot;font-size: 8px;&quot;&gt;&lt;font style=&quot;font-size: 8px;&quot;&gt;&lt;b style=&quot;font-size: 8px;&quot;&gt;crst-cn-004&lt;/b&gt;&lt;/font&gt;&lt;/div&gt;&lt;div style=&quot;font-size: 8px;&quot;&gt;&lt;font style=&quot;font-size: 8px;&quot;&gt;PBS MoM&lt;br style=&quot;font-size: 8px;&quot;&gt;&lt;/font&gt;&lt;/div&gt;" style="verticalLabelPosition=bottom;html=1;verticalAlign=top;align=center;strokeColor=none;fillColor=#00BEF2;shape=mxgraph.azure.server;fontSize=8;" vertex="1" parent="1">
          <mxGeometry x="240" y="320" width="110" height="30" as="geometry" />
        </mxCell>
        <mxCell id="Gpl_aYkSZ7lwS6UjirmN-6" style="edgeStyle=orthogonalEdgeStyle;rounded=0;orthogonalLoop=1;jettySize=auto;html=1;exitX=0.5;exitY=1;exitDx=0;exitDy=0;exitPerimeter=0;fontSize=8;" edge="1" parent="1" source="Gpl_aYkSZ7lwS6UjirmN-5" target="Gpl_aYkSZ7lwS6UjirmN-5">
          <mxGeometry relative="1" as="geometry" />
        </mxCell>
        <mxCell id="Gpl_aYkSZ7lwS6UjirmN-11" value="IB Network" style="line;strokeWidth=2;direction=south;html=1;fontSize=8;fillColor=#ffe6cc;strokeColor=#d79b00;" vertex="1" parent="1">
          <mxGeometry x="190" y="110" width="10" height="270" as="geometry" />
        </mxCell>
        <mxCell id="Gpl_aYkSZ7lwS6UjirmN-17" value="&lt;div&gt;https://access.pttep.com&lt;/div&gt;" style="sketch=0;pointerEvents=1;shadow=0;dashed=0;html=1;strokeColor=none;fillColor=#005F4B;labelPosition=center;verticalLabelPosition=bottom;verticalAlign=top;align=center;outlineConnect=0;shape=mxgraph.veeam2.web_console;fontSize=8;" vertex="1" parent="1">
          <mxGeometry x="77" y="-10" width="59" height="50" as="geometry" />
        </mxCell>
        <mxCell id="Gpl_aYkSZ7lwS6UjirmN-21" value="PTTEP LAN" style="line;strokeWidth=2;html=1;fontSize=8;labelPosition=center;verticalLabelPosition=top;align=center;verticalAlign=bottom;" vertex="1" parent="1">
          <mxGeometry x="-10" y="90" width="440" height="10" as="geometry" />
        </mxCell>
        <mxCell id="Gpl_aYkSZ7lwS6UjirmN-27" style="edgeStyle=orthogonalEdgeStyle;rounded=0;orthogonalLoop=1;jettySize=auto;html=1;entryX=0.123;entryY=0.5;entryDx=0;entryDy=0;entryPerimeter=0;strokeColor=default;fontSize=8;endArrow=none;endFill=0;" edge="1" parent="1" source="Gpl_aYkSZ7lwS6UjirmN-23" target="Gpl_aYkSZ7lwS6UjirmN-21">
          <mxGeometry relative="1" as="geometry" />
        </mxCell>
        <mxCell id="Gpl_aYkSZ7lwS6UjirmN-23" value="" style="sketch=0;aspect=fixed;pointerEvents=1;shadow=0;dashed=0;html=1;strokeColor=none;labelPosition=center;verticalLabelPosition=bottom;verticalAlign=top;align=center;fillColor=#00188D;shape=mxgraph.azure.user;fontSize=8;" vertex="1" parent="1">
          <mxGeometry x="30" y="-20" width="47" height="50" as="geometry" />
        </mxCell>
        <mxCell id="Gpl_aYkSZ7lwS6UjirmN-24" value="qsub .." style="sketch=0;outlineConnect=0;fontColor=#232F3E;gradientColor=none;fillColor=#D45B07;strokeColor=none;dashed=0;verticalLabelPosition=bottom;verticalAlign=top;align=center;html=1;fontSize=12;fontStyle=0;aspect=fixed;pointerEvents=1;shape=mxgraph.aws4.ecs_copilot_cli;" vertex="1" parent="1">
          <mxGeometry x="-18" y="-17" width="48" height="44" as="geometry" />
        </mxCell>
        <mxCell id="Gpl_aYkSZ7lwS6UjirmN-25" value="" style="line;strokeWidth=2;direction=south;html=1;fontSize=8;" vertex="1" parent="1">
          <mxGeometry x="270" y="180" width="10" height="160" as="geometry" />
        </mxCell>
      </root>
    </mxGraphModel>
  </diagram>
</mxfile>
